<?xml version="1.0" encoding="UTF-8" standalone="no"?>
<!-- Created with Inkscape (http://www.inkscape.org/) -->

<svg
   xmlns:dc="http://purl.org/dc/elements/1.1/"
   xmlns:cc="http://creativecommons.org/ns#"
   xmlns:rdf="http://www.w3.org/1999/02/22-rdf-syntax-ns#"
   xmlns:svg="http://www.w3.org/2000/svg"
   xmlns="http://www.w3.org/2000/svg"
   xmlns:sodipodi="http://sodipodi.sourceforge.net/DTD/sodipodi-0.dtd"
   xmlns:inkscape="http://www.inkscape.org/namespaces/inkscape"
   width="1052.36"
   height="1052.36"
   id="svg2"
   version="1.1"
   inkscape:version="0.48.4 r9939"
   sodipodi:docname="pointer.svg">
  <defs
     id="defs4" />
  <sodipodi:namedview
     id="base"
     pagecolor="#ffffff"
     bordercolor="#666666"
     borderopacity="1.0"
     inkscape:pageopacity="0.0"
     inkscape:pageshadow="2"
     inkscape:zoom="0.35"
     inkscape:cx="-200.71125"
     inkscape:cy="383.86557"
     inkscape:document-units="px"
     inkscape:current-layer="layer1"
     showgrid="false"
     inkscape:window-width="1600"
     inkscape:window-height="876"
     inkscape:window-x="0"
     inkscape:window-y="24"
     inkscape:window-maximized="1"
     showguides="true"
     inkscape:guide-bbox="true" />
  <metadata
     id="metadata7">
    <rdf:RDF>
      <cc:Work
         rdf:about="">
        <dc:format>image/svg+xml</dc:format>
        <dc:type
           rdf:resource="http://purl.org/dc/dcmitype/StillImage" />
        <dc:title />
      </cc:Work>
    </rdf:RDF>
  </metadata>
  <g
     inkscape:label="Layer 1"
     inkscape:groupmode="layer"
     id="layer1"
     transform="translate(0,-0.00216797)">
    <rect
       style="fill:none;stroke:#000000;stroke-width:0.60946923;stroke-miterlimit:4;stroke-opacity:1;stroke-dasharray:none"
       id="rect2985"
       width="349.46198"
       height="69.461945"
       x="290.69757"
       y="277.05963"
       rx="3.2187285"
       ry="0.46161422" />
    <rect
       style="fill:none;stroke:#000000;stroke-width:0.60946923;stroke-miterlimit:4;stroke-opacity:1;stroke-dasharray:none"
       id="rect2985-4"
       width="349.46198"
       height="69.461945"
       x="290.69757"
       y="363.18027"
       rx="3.2187285"
       ry="0.46161422" />
    <rect
       style="fill:none;stroke:#000000;stroke-width:0.60946923;stroke-miterlimit:4;stroke-opacity:1;stroke-dasharray:none"
       id="rect2985-3"
       width="349.46198"
       height="69.461945"
       x="290.69757"
       y="449.30078"
       rx="3.2187285"
       ry="0.46161422" />
    <rect
       style="fill:none;stroke:#000000;stroke-width:0.60946923;stroke-miterlimit:4;stroke-opacity:1;stroke-dasharray:none"
       id="rect2985-8"
       width="349.46198"
       height="69.461945"
       x="290.69757"
       y="535.42126"
       rx="3.2187285"
       ry="0.46161422" />
    <rect
       style="fill:none;stroke:#000000;stroke-width:0.60946923;stroke-miterlimit:4;stroke-opacity:1;stroke-dasharray:none"
       id="rect2985-5"
       width="349.46198"
       height="69.461945"
       x="290.69757"
       y="621.54187"
       rx="3.2187285"
       ry="0.46161422" />
    <rect
       style="fill:none;stroke:#000000;stroke-width:0.60946923;stroke-miterlimit:4;stroke-opacity:1;stroke-dasharray:none"
       id="rect2985-1"
       width="349.46198"
       height="69.461945"
       x="290.69757"
       y="707.66241"
       rx="3.2187285"
       ry="0.46161422" />
    <rect
       style="fill:none;stroke:#000000;stroke-width:0.60946923;stroke-miterlimit:4;stroke-opacity:1;stroke-dasharray:none"
       id="rect2985-11"
       width="349.46198"
       height="69.461945"
       x="290.69757"
       y="793.78296"
       rx="3.2187285"
       ry="0.46161422" />
    <rect
       style="fill:none;stroke:#000000;stroke-width:0.60946923;stroke-miterlimit:4;stroke-opacity:1;stroke-dasharray:none"
       id="rect2985-2"
       width="349.46198"
       height="69.461945"
       x="290.69757"
       y="879.9035"
       rx="3.2187285"
       ry="0.46161422" />
    <rect
       style="fill:none;stroke:#000000;stroke-width:0.60946923;stroke-miterlimit:4;stroke-opacity:1;stroke-dasharray:none"
       id="rect2985-84"
       width="349.46198"
       height="69.461945"
       x="290.69757"
       y="966.02405"
       rx="3.2187285"
       ry="0.46161422" />
    <text
       xml:space="preserve"
       style="font-size:64px;font-style:normal;font-variant:normal;font-weight:normal;font-stretch:normal;text-align:start;line-height:125%;letter-spacing:0px;word-spacing:0px;writing-mode:lr-tb;text-anchor:start;fill:#000000;fill-opacity:1;stroke:none;font-family:Monospace;-inkscape-font-specification:Monospace"
       x="43.912956"
       y="336.98041"
       id="text3824"
       sodipodi:linespacing="125%"><tspan
         sodipodi:role="line"
         id="tspan3826"
         x="43.912956"
         y="336.98041">0x0010</tspan></text>
    <text
       xml:space="preserve"
       style="font-size:64px;font-style:normal;font-variant:normal;font-weight:normal;font-stretch:normal;text-align:start;line-height:125%;letter-spacing:0px;word-spacing:0px;writing-mode:lr-tb;text-anchor:start;fill:#000000;fill-opacity:1;stroke:none;font-family:Monospace;-inkscape-font-specification:Monospace"
       x="44.006706"
       y="423.10095"
       id="text3828"
       sodipodi:linespacing="125%"><tspan
         sodipodi:role="line"
         id="tspan3830"
         x="44.006706"
         y="423.10095">0x0011</tspan></text>
    <text
       xml:space="preserve"
       style="font-size:64px;font-style:normal;font-variant:normal;font-weight:normal;font-stretch:normal;text-align:start;line-height:125%;letter-spacing:0px;word-spacing:0px;writing-mode:lr-tb;text-anchor:start;fill:#000000;fill-opacity:1;stroke:none;font-family:Monospace;-inkscape-font-specification:Monospace"
       x="44.006706"
       y="509.22153"
       id="text3828-6"
       sodipodi:linespacing="125%"><tspan
         sodipodi:role="line"
         id="tspan3830-6"
         x="44.006706"
         y="509.22153">0x0012</tspan></text>
    <text
       xml:space="preserve"
       style="font-size:64px;font-style:normal;font-variant:normal;font-weight:normal;font-stretch:normal;text-align:start;line-height:125%;letter-spacing:0px;word-spacing:0px;writing-mode:lr-tb;text-anchor:start;fill:#000000;fill-opacity:1;stroke:none;font-family:Monospace;-inkscape-font-specification:Monospace"
       x="44.006706"
       y="595.34204"
       id="text3828-4"
       sodipodi:linespacing="125%"><tspan
         sodipodi:role="line"
         id="tspan3830-1"
         x="44.006706"
         y="595.34204">0x0013</tspan></text>
    <text
       xml:space="preserve"
       style="font-size:64px;font-style:normal;font-variant:normal;font-weight:normal;font-stretch:normal;text-align:start;line-height:125%;letter-spacing:0px;word-spacing:0px;writing-mode:lr-tb;text-anchor:start;fill:#000000;fill-opacity:1;stroke:none;font-family:Monospace;-inkscape-font-specification:Monospace"
       x="44.006706"
       y="681.46259"
       id="text3828-2"
       sodipodi:linespacing="125%"><tspan
         sodipodi:role="line"
         id="tspan3830-8"
         x="44.006706"
         y="681.46259">0x0014</tspan></text>
    <text
       xml:space="preserve"
       style="font-size:64px;font-style:normal;font-variant:normal;font-weight:normal;font-stretch:normal;text-align:start;line-height:125%;letter-spacing:0px;word-spacing:0px;writing-mode:lr-tb;text-anchor:start;fill:#000000;fill-opacity:1;stroke:none;font-family:Monospace;-inkscape-font-specification:Monospace"
       x="44.006706"
       y="767.58313"
       id="text3828-60"
       sodipodi:linespacing="125%"><tspan
         sodipodi:role="line"
         id="tspan3830-4"
         x="44.006706"
         y="767.58313">0x0015</tspan></text>
    <text
       xml:space="preserve"
       style="font-size:64px;font-style:normal;font-variant:normal;font-weight:normal;font-stretch:normal;text-align:start;line-height:125%;letter-spacing:0px;word-spacing:0px;writing-mode:lr-tb;text-anchor:start;fill:#000000;fill-opacity:1;stroke:none;font-family:Monospace;-inkscape-font-specification:Monospace"
       x="44.006706"
       y="853.70367"
       id="text3828-29"
       sodipodi:linespacing="125%"><tspan
         sodipodi:role="line"
         id="tspan3830-83"
         x="44.006706"
         y="853.70367">0x0016</tspan></text>
    <text
       xml:space="preserve"
       style="font-size:64px;font-style:normal;font-variant:normal;font-weight:normal;font-stretch:normal;text-align:start;line-height:125%;letter-spacing:0px;word-spacing:0px;writing-mode:lr-tb;text-anchor:start;fill:#000000;fill-opacity:1;stroke:none;font-family:Monospace;-inkscape-font-specification:Monospace"
       x="44.006706"
       y="939.82422"
       id="text3828-1"
       sodipodi:linespacing="125%"><tspan
         sodipodi:role="line"
         id="tspan3830-5"
         x="44.006706"
         y="939.82422">0x0017</tspan></text>
    <text
       xml:space="preserve"
       style="font-size:64px;font-style:normal;font-variant:normal;font-weight:normal;font-stretch:normal;text-align:start;line-height:125%;letter-spacing:0px;word-spacing:0px;writing-mode:lr-tb;text-anchor:start;fill:#000000;fill-opacity:1;stroke:none;font-family:Monospace;-inkscape-font-specification:Monospace"
       x="44.006706"
       y="1025.9448"
       id="text3828-0"
       sodipodi:linespacing="125%"><tspan
         sodipodi:role="line"
         id="tspan3830-80"
         x="44.006706"
         y="1025.9448">0x0018</tspan></text>
    <path
       style="fill:none;stroke:#000000;stroke-width:1px;stroke-linecap:butt;stroke-linejoin:miter;stroke-opacity:1"
       d="M 668.28571,268.76029 754,268.93361 l 0.34663,337.14286 -86.7393,0"
       id="path3916"
       inkscape:connector-curvature="0"
       sodipodi:nodetypes="cccc" />
    <text
       xml:space="preserve"
       style="font-size:64px;font-style:normal;font-variant:normal;font-weight:normal;font-stretch:normal;text-align:start;line-height:125%;letter-spacing:0px;word-spacing:0px;writing-mode:lr-tb;text-anchor:start;fill:#000000;fill-opacity:1;stroke:none;font-family:Monospace;-inkscape-font-specification:Monospace"
       x="765.95447"
       y="394.76553"
       id="text3918"
       sodipodi:linespacing="125%"><tspan
         sodipodi:role="line"
         id="tspan3920"
         x="765.95447"
         y="394.76553">int i</tspan></text>
    <text
       xml:space="preserve"
       style="font-size:64px;font-style:normal;font-variant:normal;font-weight:normal;font-stretch:normal;text-align:start;line-height:125%;letter-spacing:0px;word-spacing:0px;writing-mode:lr-tb;text-anchor:start;fill:#000000;fill-opacity:1;stroke:none;font-family:Monospace;-inkscape-font-specification:Monospace"
       x="314"
       y="331.79077"
       id="text4038"
       sodipodi:linespacing="125%"><tspan
         sodipodi:role="line"
         id="tspan4040"
         x="314"
         y="331.79077">00000000</tspan></text>
    <text
       xml:space="preserve"
       style="font-size:64px;font-style:normal;font-variant:normal;font-weight:normal;font-stretch:normal;text-align:start;line-height:125%;letter-spacing:0px;word-spacing:0px;writing-mode:lr-tb;text-anchor:start;fill:#000000;fill-opacity:1;stroke:none;font-family:Monospace;-inkscape-font-specification:Monospace"
       x="314"
       y="421.46115"
       id="text4038-6"
       sodipodi:linespacing="125%"><tspan
         sodipodi:role="line"
         id="tspan4040-6"
         x="314"
         y="421.46115">00000000</tspan></text>
    <text
       xml:space="preserve"
       style="font-size:64px;font-style:normal;font-variant:normal;font-weight:normal;font-stretch:normal;text-align:start;line-height:125%;letter-spacing:0px;word-spacing:0px;writing-mode:lr-tb;text-anchor:start;fill:#000000;fill-opacity:1;stroke:none;font-family:Monospace;-inkscape-font-specification:Monospace"
       x="314"
       y="511.13159"
       id="text4038-0"
       sodipodi:linespacing="125%"><tspan
         sodipodi:role="line"
         id="tspan4040-7"
         x="314"
         y="511.13159">00000000</tspan></text>
    <text
       xml:space="preserve"
       style="font-size:64px;font-style:normal;font-variant:normal;font-weight:normal;font-stretch:normal;text-align:start;line-height:125%;letter-spacing:0px;word-spacing:0px;writing-mode:lr-tb;text-anchor:start;fill:#000000;fill-opacity:1;stroke:none;font-family:Monospace;-inkscape-font-specification:Monospace"
       x="314"
       y="600.80188"
       id="text4038-9"
       sodipodi:linespacing="125%"><tspan
         sodipodi:role="line"
         id="tspan4040-1"
         x="314"
         y="600.80188">00000000</tspan></text>
    <text
       xml:space="preserve"
       style="font-size:64px;font-style:normal;font-variant:normal;font-weight:normal;font-stretch:normal;text-align:start;line-height:125%;letter-spacing:0px;word-spacing:0px;writing-mode:lr-tb;text-anchor:start;fill:#000000;fill-opacity:1;stroke:none;font-family:Monospace;-inkscape-font-specification:Monospace"
       x="331.14285"
       y="683.21936"
       id="text4162"
       sodipodi:linespacing="125%"><tspan
         sodipodi:role="line"
         id="tspan4164"
         x="331.14285"
         y="683.21936">0x0010</tspan></text>
    <text
       xml:space="preserve"
       style="font-size:64px;font-style:normal;font-variant:normal;font-weight:normal;font-stretch:normal;text-align:start;line-height:125%;letter-spacing:0px;word-spacing:0px;writing-mode:lr-tb;text-anchor:start;fill:#000000;fill-opacity:1;stroke:none;font-family:Monospace;-inkscape-font-specification:Monospace"
       x="688.28571"
       y="677.50507"
       id="text4166"
       sodipodi:linespacing="125%"><tspan
         sodipodi:role="line"
         id="tspan4168"
         x="688.28571"
         y="677.50507">int * a;</tspan></text>
    <path
       style="fill:none;stroke:#000000;stroke-width:1.5;stroke-miterlimit:4;stroke-opacity:1;stroke-dasharray:none;marker-start:none"
       id="path4178"
       d="m 605.7664,650.9593 c 19.13896,0.57676 38.20035,-0.73768 57.25157,-2.40742 31.8159,-3.38783 63.27873,-10.18589 93.24731,-21.51931 7.55218,-2.85606 14.91881,-6.18055 22.37822,-9.27082 40.20464,-19.21093 77.3996,-44.81615 111.00218,-74.03645 6.83054,-5.93973 13.32325,-12.25717 19.98488,-18.38575 32.55475,-31.97252 61.17664,-68.44984 82.8686,-108.70829 4.24566,-7.8796 7.83294,-16.09656 11.74944,-24.14484 19.8905,-44.74261 26.6543,-90.40121 30.3717,-138.67967 1.6776,-36.1811 -9.3305,-70.67115 -27.2521,-101.83255 -4.3691,-7.59692 -9.43171,-14.77337 -14.14759,-22.16005 C 971.3367,97.937821 943.74005,70.926601 910.39957,51.176731 887.93398,37.86881 881.51557,36.526 857.35233,27.17189 816.61096,14.94615 774.01566,9.22523 731.47026,11.34733 c -28.34408,1.41376 -38.27133,4.10338 -65.97675,9.08573 -36.61234,8.21657 -72.23499,21.25679 -103.06526,43.018201 -15.76196,11.125513 -18.3427,14.431998 -31.77173,27.175489 -17.25749,17.18091 -29.67344,37.85019 -39.72921,59.82005 -4.95544,12.28021 -10.6994,24.21881 -15.81882,36.42636 0,0 -2.54672,1.1724 -2.54672,1.1724 l 0,0 c 5.15128,-12.21702 10.92768,-24.16305 15.88482,-36.46602 10.06806,-22.02852 22.51426,-42.74478 39.81326,-59.967347 12.69586,-12.057509 16.91607,-16.923686 31.82706,-27.251682 32.39026,-22.434881 68.88415,-37.092141 107.32836,-45.376531 27.7084,-4.96345 37.65021,-7.64655 65.99715,-9.04837 42.57968,-2.10565 85.21132,3.61923 125.98283,15.86443 24.19005,9.38349 30.57808,10.7196 53.0691,24.055009 33.36157,19.780795 60.98925,46.809867 82.91346,78.700661 4.72669,7.38967 9.79869,14.5695 14.18009,22.16902 17.9775,31.18231 29.057,65.69571 27.3681,101.92954 -3.7519,48.3098 -10.5295,94.02133 -30.41,138.80334 -3.9149,8.05503 -7.49939,16.27918 -11.74464,24.1651 -21.68144,40.27519 -50.29705,76.77801 -82.84039,108.77513 -6.66242,6.13385 -13.15587,12.45647 -19.98726,18.40156 -34.85113,30.32955 -73.59927,56.57833 -115.2837,76.52597 -7.46956,3.09123 -14.84642,6.41673 -22.40868,9.27371 -30.01007,11.33761 -61.5127,18.13385 -93.36766,21.53224 -19.10301,1.68546 -38.21408,2.99441 -57.40606,2.49089 0,0 2.28879,-1.66291 2.28879,-1.66291 z"
       inkscape:connector-curvature="0" />
    <path
       style="fill:none;stroke:#000000;stroke-width:1.5;stroke-miterlimit:4;stroke-opacity:1;stroke-dasharray:none"
       id="path5172"
       d="m 452.4032,144.62773 c -0.0319,13.74341 -0.0415,27.48687 -0.0472,41.23031 -0.004,16.6412 0.005,33.28239 0.022,49.92357 0.008,7.04529 0.0105,14.09058 0.0269,21.13586 0.23059,0.88646 0.43602,2.17082 1.56742,2.37948 0.28201,0.052 1.10343,-0.26595 0.85018,-0.13143 -2.75913,1.46553 -0.30856,-0.93386 0.24059,-1.66177 6.23424,-12.00693 10.75037,-24.84822 16.02977,-37.29849 4.98907,-11.76825 11.83392,-22.57631 17.84171,-33.81737 3.71163,-6.45114 7.15292,-13.1582 11.6593,-19.10483 0.37414,-0.44918 0.74828,-0.89836 1.12242,-1.34754 0,0 2.60795,-1.10679 2.60795,-1.10679 l 0,0 c -0.37826,0.44617 -0.75652,0.89233 -1.13478,1.3385 -4.55413,5.91521 -7.98892,12.63599 -11.71725,19.08078 -6.00466,11.24799 -12.87083,22.04791 -17.88473,33.80989 -5.29054,12.44396 -9.81578,25.26414 -15.93362,37.32655 -1.97477,2.7529 -6.6152,7.22757 -7.77313,1.81915 0.0164,-7.05441 0.0185,-14.10885 0.0269,-21.16327 0.0167,-16.64867 0.026,-33.29735 0.022,-49.94603 -0.006,-13.72742 -0.0153,-27.45484 -0.0472,-41.18222 0,0 2.52068,-1.28435 2.52068,-1.28435 z"
       inkscape:connector-curvature="0" />
  </g>
</svg>
