<?xml version="1.0" encoding="UTF-8" standalone="no"?>
<!-- Created with Inkscape (http://www.inkscape.org/) -->

<svg
   xmlns:dc="http://purl.org/dc/elements/1.1/"
   xmlns:cc="http://creativecommons.org/ns#"
   xmlns:rdf="http://www.w3.org/1999/02/22-rdf-syntax-ns#"
   xmlns:svg="http://www.w3.org/2000/svg"
   xmlns="http://www.w3.org/2000/svg"
   xmlns:sodipodi="http://sodipodi.sourceforge.net/DTD/sodipodi-0.dtd"
   xmlns:inkscape="http://www.inkscape.org/namespaces/inkscape"
   width="744.09448819"
   height="1052.3622047"
   id="svg2"
   version="1.1"
   inkscape:version="0.48.4 r9939"
   sodipodi:docname="stack.svg">
  <defs
     id="defs4" />
  <sodipodi:namedview
     id="base"
     pagecolor="#ffffff"
     bordercolor="#666666"
     borderopacity="1.0"
     inkscape:pageopacity="0.0"
     inkscape:pageshadow="2"
     inkscape:zoom="0.35"
     inkscape:cx="-200.71125"
     inkscape:cy="383.86557"
     inkscape:document-units="px"
     inkscape:current-layer="layer1"
     showgrid="false"
     inkscape:window-width="1600"
     inkscape:window-height="876"
     inkscape:window-x="0"
     inkscape:window-y="24"
     inkscape:window-maximized="1" />
  <metadata
     id="metadata7">
    <rdf:RDF>
      <cc:Work
         rdf:about="">
        <dc:format>image/svg+xml</dc:format>
        <dc:type
           rdf:resource="http://purl.org/dc/dcmitype/StillImage" />
        <dc:title></dc:title>
      </cc:Work>
    </rdf:RDF>
  </metadata>
  <g
     inkscape:label="Layer 1"
     inkscape:groupmode="layer"
     id="layer1">
    <rect
       style="fill:none;stroke:#000000;stroke-width:0.60946923;stroke-miterlimit:4;stroke-opacity:1;stroke-dasharray:none"
       id="rect2985"
       width="349.46198"
       height="69.461945"
       x="216.69759"
       y="129.05965"
       rx="3.2187285"
       ry="0.46161422" />
    <rect
       style="fill:none;stroke:#000000;stroke-width:0.60946923;stroke-miterlimit:4;stroke-opacity:1;stroke-dasharray:none"
       id="rect2985-4"
       width="349.46198"
       height="69.461945"
       x="216.69759"
       y="215.18027"
       rx="3.2187285"
       ry="0.46161422" />
    <rect
       style="fill:none;stroke:#000000;stroke-width:0.60946923;stroke-miterlimit:4;stroke-opacity:1;stroke-dasharray:none"
       id="rect2985-3"
       width="349.46198"
       height="69.461945"
       x="216.69759"
       y="301.30078"
       rx="3.2187285"
       ry="0.46161422" />
    <rect
       style="fill:none;stroke:#000000;stroke-width:0.60946923;stroke-miterlimit:4;stroke-opacity:1;stroke-dasharray:none"
       id="rect2985-8"
       width="349.46198"
       height="69.461945"
       x="216.69759"
       y="387.4213"
       rx="3.2187285"
       ry="0.46161422" />
    <rect
       style="fill:none;stroke:#000000;stroke-width:0.60946923;stroke-miterlimit:4;stroke-opacity:1;stroke-dasharray:none"
       id="rect2985-5"
       width="349.46198"
       height="69.461945"
       x="216.69759"
       y="473.54187"
       rx="3.2187285"
       ry="0.46161422" />
    <rect
       style="fill:none;stroke:#000000;stroke-width:0.60946923;stroke-miterlimit:4;stroke-opacity:1;stroke-dasharray:none"
       id="rect2985-1"
       width="349.46198"
       height="69.461945"
       x="216.69759"
       y="559.66241"
       rx="3.2187285"
       ry="0.46161422" />
    <rect
       style="fill:none;stroke:#000000;stroke-width:0.60946923;stroke-miterlimit:4;stroke-opacity:1;stroke-dasharray:none"
       id="rect2985-11"
       width="349.46198"
       height="69.461945"
       x="216.69759"
       y="645.78296"
       rx="3.2187285"
       ry="0.46161422" />
    <rect
       style="fill:none;stroke:#000000;stroke-width:0.60946923;stroke-miterlimit:4;stroke-opacity:1;stroke-dasharray:none"
       id="rect2985-2"
       width="349.46198"
       height="69.461945"
       x="216.69759"
       y="731.9035"
       rx="3.2187285"
       ry="0.46161422" />
    <rect
       style="fill:none;stroke:#000000;stroke-width:0.60946923;stroke-miterlimit:4;stroke-opacity:1;stroke-dasharray:none"
       id="rect2985-84"
       width="349.46198"
       height="69.461945"
       x="216.69759"
       y="818.02405"
       rx="3.2187285"
       ry="0.46161422" />
    <text
       xml:space="preserve"
       style="font-size:64px;font-style:normal;font-variant:normal;font-weight:normal;font-stretch:normal;text-align:start;line-height:125%;letter-spacing:0px;word-spacing:0px;writing-mode:lr-tb;text-anchor:start;fill:#000000;fill-opacity:1;stroke:none;font-family:Monospace;-inkscape-font-specification:Monospace"
       x="-30.087044"
       y="188.98041"
       id="text3824"
       sodipodi:linespacing="125%"><tspan
         sodipodi:role="line"
         id="tspan3826"
         x="-30.087044"
         y="188.98041">0x0010</tspan></text>
    <text
       xml:space="preserve"
       style="font-size:64px;font-style:normal;font-variant:normal;font-weight:normal;font-stretch:normal;text-align:start;line-height:125%;letter-spacing:0px;word-spacing:0px;writing-mode:lr-tb;text-anchor:start;fill:#000000;fill-opacity:1;stroke:none;font-family:Monospace;-inkscape-font-specification:Monospace"
       x="-29.993294"
       y="275.10095"
       id="text3828"
       sodipodi:linespacing="125%"><tspan
         sodipodi:role="line"
         id="tspan3830"
         x="-29.993294"
         y="275.10095">0x0011</tspan></text>
    <text
       xml:space="preserve"
       style="font-size:64px;font-style:normal;font-variant:normal;font-weight:normal;font-stretch:normal;text-align:start;line-height:125%;letter-spacing:0px;word-spacing:0px;writing-mode:lr-tb;text-anchor:start;fill:#000000;fill-opacity:1;stroke:none;font-family:Monospace;-inkscape-font-specification:Monospace"
       x="-29.993294"
       y="361.22153"
       id="text3828-6"
       sodipodi:linespacing="125%"><tspan
         sodipodi:role="line"
         id="tspan3830-6"
         x="-29.993294"
         y="361.22153">0x0012</tspan></text>
    <text
       xml:space="preserve"
       style="font-size:64px;font-style:normal;font-variant:normal;font-weight:normal;font-stretch:normal;text-align:start;line-height:125%;letter-spacing:0px;word-spacing:0px;writing-mode:lr-tb;text-anchor:start;fill:#000000;fill-opacity:1;stroke:none;font-family:Monospace;-inkscape-font-specification:Monospace"
       x="-29.993294"
       y="447.34201"
       id="text3828-4"
       sodipodi:linespacing="125%"><tspan
         sodipodi:role="line"
         id="tspan3830-1"
         x="-29.993294"
         y="447.34201">0x0013</tspan></text>
    <text
       xml:space="preserve"
       style="font-size:64px;font-style:normal;font-variant:normal;font-weight:normal;font-stretch:normal;text-align:start;line-height:125%;letter-spacing:0px;word-spacing:0px;writing-mode:lr-tb;text-anchor:start;fill:#000000;fill-opacity:1;stroke:none;font-family:Monospace;-inkscape-font-specification:Monospace"
       x="-29.993294"
       y="533.46259"
       id="text3828-2"
       sodipodi:linespacing="125%"><tspan
         sodipodi:role="line"
         id="tspan3830-8"
         x="-29.993294"
         y="533.46259">0x0014</tspan></text>
    <text
       xml:space="preserve"
       style="font-size:64px;font-style:normal;font-variant:normal;font-weight:normal;font-stretch:normal;text-align:start;line-height:125%;letter-spacing:0px;word-spacing:0px;writing-mode:lr-tb;text-anchor:start;fill:#000000;fill-opacity:1;stroke:none;font-family:Monospace;-inkscape-font-specification:Monospace"
       x="-29.993294"
       y="619.58313"
       id="text3828-60"
       sodipodi:linespacing="125%"><tspan
         sodipodi:role="line"
         id="tspan3830-4"
         x="-29.993294"
         y="619.58313">0x0015</tspan></text>
    <text
       xml:space="preserve"
       style="font-size:64px;font-style:normal;font-variant:normal;font-weight:normal;font-stretch:normal;text-align:start;line-height:125%;letter-spacing:0px;word-spacing:0px;writing-mode:lr-tb;text-anchor:start;fill:#000000;fill-opacity:1;stroke:none;font-family:Monospace;-inkscape-font-specification:Monospace"
       x="-29.993294"
       y="705.70367"
       id="text3828-29"
       sodipodi:linespacing="125%"><tspan
         sodipodi:role="line"
         id="tspan3830-83"
         x="-29.993294"
         y="705.70367">0x0016</tspan></text>
    <text
       xml:space="preserve"
       style="font-size:64px;font-style:normal;font-variant:normal;font-weight:normal;font-stretch:normal;text-align:start;line-height:125%;letter-spacing:0px;word-spacing:0px;writing-mode:lr-tb;text-anchor:start;fill:#000000;fill-opacity:1;stroke:none;font-family:Monospace;-inkscape-font-specification:Monospace"
       x="-29.993294"
       y="791.82422"
       id="text3828-1"
       sodipodi:linespacing="125%"><tspan
         sodipodi:role="line"
         id="tspan3830-5"
         x="-29.993294"
         y="791.82422">0x0017</tspan></text>
    <text
       xml:space="preserve"
       style="font-size:64px;font-style:normal;font-variant:normal;font-weight:normal;font-stretch:normal;text-align:start;line-height:125%;letter-spacing:0px;word-spacing:0px;writing-mode:lr-tb;text-anchor:start;fill:#000000;fill-opacity:1;stroke:none;font-family:Monospace;-inkscape-font-specification:Monospace"
       x="-29.993294"
       y="877.94476"
       id="text3828-0"
       sodipodi:linespacing="125%"><tspan
         sodipodi:role="line"
         id="tspan3830-80"
         x="-29.993294"
         y="877.94476">0x0018</tspan></text>
    <path
       style="fill:none;stroke:#000000;stroke-width:1px;stroke-linecap:butt;stroke-linejoin:miter;stroke-opacity:1"
       d="M 594.28571,120.76029 680,120.93361 l 0.34663,337.14286 -86.7393,0"
       id="path3916"
       inkscape:connector-curvature="0"
       sodipodi:nodetypes="cccc" />
    <text
       xml:space="preserve"
       style="font-size:64px;font-style:normal;font-variant:normal;font-weight:normal;font-stretch:normal;text-align:start;line-height:125%;letter-spacing:0px;word-spacing:0px;writing-mode:lr-tb;text-anchor:start;fill:#000000;fill-opacity:1;stroke:none;font-family:Monospace;-inkscape-font-specification:Monospace"
       x="691.95447"
       y="246.76553"
       id="text3918"
       sodipodi:linespacing="125%"><tspan
         sodipodi:role="line"
         id="tspan3920"
         x="691.95447"
         y="246.76553">int i</tspan></text>
    <text
       xml:space="preserve"
       style="font-size:64px;font-style:normal;font-variant:normal;font-weight:normal;font-stretch:normal;text-align:start;line-height:125%;letter-spacing:0px;word-spacing:0px;writing-mode:lr-tb;text-anchor:start;fill:#000000;fill-opacity:1;stroke:none;font-family:Monospace;-inkscape-font-specification:Monospace"
       x="240"
       y="183.79076"
       id="text4038"
       sodipodi:linespacing="125%"><tspan
         sodipodi:role="line"
         id="tspan4040"
         x="240"
         y="183.79076">00000000</tspan></text>
    <text
       xml:space="preserve"
       style="font-size:64px;font-style:normal;font-variant:normal;font-weight:normal;font-stretch:normal;text-align:start;line-height:125%;letter-spacing:0px;word-spacing:0px;writing-mode:lr-tb;text-anchor:start;fill:#000000;fill-opacity:1;stroke:none;font-family:Monospace;-inkscape-font-specification:Monospace"
       x="240"
       y="273.46115"
       id="text4038-6"
       sodipodi:linespacing="125%"><tspan
         sodipodi:role="line"
         id="tspan4040-6"
         x="240"
         y="273.46115">00000000</tspan></text>
    <text
       xml:space="preserve"
       style="font-size:64px;font-style:normal;font-variant:normal;font-weight:normal;font-stretch:normal;text-align:start;line-height:125%;letter-spacing:0px;word-spacing:0px;writing-mode:lr-tb;text-anchor:start;fill:#000000;fill-opacity:1;stroke:none;font-family:Monospace;-inkscape-font-specification:Monospace"
       x="240"
       y="363.13156"
       id="text4038-0"
       sodipodi:linespacing="125%"><tspan
         sodipodi:role="line"
         id="tspan4040-7"
         x="240"
         y="363.13156">00000000</tspan></text>
    <text
       xml:space="preserve"
       style="font-size:64px;font-style:normal;font-variant:normal;font-weight:normal;font-stretch:normal;text-align:start;line-height:125%;letter-spacing:0px;word-spacing:0px;writing-mode:lr-tb;text-anchor:start;fill:#000000;fill-opacity:1;stroke:none;font-family:Monospace;-inkscape-font-specification:Monospace"
       x="240"
       y="452.80191"
       id="text4038-9"
       sodipodi:linespacing="125%"><tspan
         sodipodi:role="line"
         id="tspan4040-1"
         x="240"
         y="452.80191">00000000</tspan></text>
    <text
       xml:space="preserve"
       style="font-size:64px;font-style:normal;font-variant:normal;font-weight:normal;font-stretch:normal;text-align:start;line-height:125%;letter-spacing:0px;word-spacing:0px;writing-mode:lr-tb;text-anchor:start;fill:#000000;fill-opacity:1;stroke:none;font-family:Monospace;-inkscape-font-specification:Monospace"
       x="257.14285"
       y="535.21936"
       id="text4162"
       sodipodi:linespacing="125%"><tspan
         sodipodi:role="line"
         id="tspan4164"
         x="257.14285"
         y="535.21936">0x0010</tspan></text>
    <text
       xml:space="preserve"
       style="font-size:64px;font-style:normal;font-variant:normal;font-weight:normal;font-stretch:normal;text-align:start;line-height:125%;letter-spacing:0px;word-spacing:0px;writing-mode:lr-tb;text-anchor:start;fill:#000000;fill-opacity:1;stroke:none;font-family:Monospace;-inkscape-font-specification:Monospace"
       x="614.28571"
       y="529.50507"
       id="text4166"
       sodipodi:linespacing="125%"><tspan
         sodipodi:role="line"
         id="tspan4168"
         x="614.28571"
         y="529.50507">int * a;</tspan></text>
    <path
       style="fill:none;stroke:#000000;stroke-width:1.50000000000000000;stroke-miterlimit:4;stroke-opacity:1;stroke-dasharray:none;marker-start:none"
       id="path4178"
       d="m 531.7664,502.9593 c 19.13896,0.57676 38.20035,-0.73768 57.25157,-2.40742 31.8159,-3.38783 63.27873,-10.18589 93.24731,-21.51931 7.55218,-2.85606 14.91881,-6.18055 22.37822,-9.27082 40.20464,-19.21093 77.3996,-44.81615 111.00218,-74.03645 6.83054,-5.93973 13.32325,-12.25717 19.98488,-18.38575 32.55475,-31.97252 61.17664,-68.44984 82.8686,-108.70829 4.24566,-7.8796 7.83299,-16.09656 11.74949,-24.14484 19.8905,-44.74261 26.65425,-90.40121 30.37163,-138.67967 1.67766,-36.181104 -9.33049,-70.671155 -27.25204,-101.8325496 -4.36915,-7.5969174 -9.43175,-14.7733664 -14.14763,-22.1600494 -21.88391,-31.87633 -49.48056,-58.88755 -82.82104,-78.63742 -22.46559,-13.307921 -28.884,-14.650731 -53.04724,-24.004841 -40.74137,-12.22574 -83.33667,-17.94666 -125.88207,-15.82456 -28.34408,1.41376 -38.27133,4.10338 -65.97675,9.08573 -36.61234,8.21657 -72.23499,21.25679 -103.06526,43.018201 -15.76196,11.125513 -18.3427,14.431998 -31.77173,27.175489 -17.25749,17.180914 -29.67344,37.850191 -39.72921,59.8200494 -4.95544,12.2802156 -10.6994,24.2188066 -15.81882,36.4263576 0,0 -2.54672,1.172398 -2.54672,1.172398 l 0,0 c 5.15128,-12.21701 10.92768,-24.163042 15.88482,-36.4660193 10.06806,-22.0285197 22.51426,-42.7447737 39.81326,-59.9673427 12.69586,-12.057509 16.91607,-16.923686 31.82706,-27.251682 32.39026,-22.434881 68.88415,-37.092141 107.32836,-45.376531 27.7084,-4.96345 37.65021,-7.64655 65.99715,-9.04837 42.57968,-2.10565 85.21132,3.61923 125.98283,15.86443 24.19005,9.38349 30.57808,10.7196 53.0691,24.055009 33.36157,19.780795 60.98925,46.809867 82.91346,78.700658 4.72669,7.389676 9.79872,14.5695049 14.18006,22.1690258 17.97749,31.1823052 29.05702,65.6957052 27.3681,101.9295372 -3.75188,48.3098 -10.52944,94.02133 -30.41,138.80334 -3.91487,8.05503 -7.49936,16.27918 -11.74461,24.1651 -21.68144,40.27519 -50.29705,76.77801 -82.84039,108.77513 -6.66242,6.13385 -13.15587,12.45647 -19.98726,18.40156 -34.85113,30.32955 -73.59927,56.57833 -115.2837,76.52597 -7.46956,3.09123 -14.84642,6.41673 -22.40868,9.27371 -30.01007,11.33761 -61.5127,18.13385 -93.36766,21.53224 -19.10301,1.68546 -38.21408,2.99441 -57.40606,2.49089 0,0 2.28879,-1.66291 2.28879,-1.66291 z"
       inkscape:connector-curvature="0" />
    <path
       style="fill:none;stroke:#000000;stroke-width:1.5;stroke-miterlimit:4;stroke-opacity:1;stroke-dasharray:none"
       id="path5172"
       d="m 378.4032,-3.3722696 c -0.0319,13.7434106 -0.0415,27.4868696 -0.0472,41.2303136 -0.004,16.641191 0.005,33.282384 0.022,49.923567 0.008,7.045287 0.0105,14.090579 0.0269,21.135859 0.23059,0.88646 0.43602,2.17082 1.56742,2.37948 0.28201,0.052 1.10343,-0.26595 0.85018,-0.13143 -2.75913,1.46553 -0.30856,-0.93386 0.24059,-1.66177 6.23424,-12.006926 10.75037,-24.848225 16.02977,-37.298486 4.98907,-11.768255 11.83392,-22.576312 17.84171,-33.81737 3.71163,-6.451144 7.15292,-13.158202 11.6593,-19.104834 0.37414,-0.44918 0.74828,-0.898361 1.12242,-1.347542 0,0 2.60795,-1.106787 2.60795,-1.106787 l 0,0 c -0.37826,0.446167 -0.75652,0.892333 -1.13478,1.338499 -4.55413,5.915214 -7.98892,12.635993 -11.71725,19.080784 -6.00466,11.247983 -12.87083,22.047901 -17.88473,33.809882 -5.29054,12.443962 -9.81578,25.264147 -15.93362,37.326554 -1.97477,2.7529 -6.6152,7.22757 -7.77313,1.81915 0.0164,-7.05441 0.0185,-14.108846 0.0269,-21.16327 0.0167,-16.648672 0.026,-33.297354 0.022,-49.946035 -0.006,-13.72741 -0.0153,-27.454835 -0.0472,-41.1822125 0,0 2.52068,-1.2843521 2.52068,-1.2843521 z"
       inkscape:connector-curvature="0" />
  </g>
</svg>
